<svg width="48" height="45" viewBox="0 0 48 45" fill="none" xmlns="http://www.w3.org/2000/svg">
<rect x="2" width="44" height="21" fill="black"/>
<rect x="4" y="2" width="40" height="17" fill="#D9D9D9"/>
<rect x="22" y="21" width="4" height="10" fill="black"/>
<path d="M4 33H46L47.5 44.5H0.5L4 33Z" fill="black"/>
<path d="M5 35H7L7.5 37.5H4.5L5 35Z" fill="#D9D9D9"/>
<path d="M3 39H5L5.5 41.5H2.5L3 39Z" fill="#D9D9D9"/>
<path d="M7.5 39H9.5L10 41.5H7L7.5 39Z" fill="#D9D9D9"/>
<path d="M10 35H12L12.5 37.5H9.5L10 35Z" fill="#D9D9D9"/>
<path d="M14.5 35H16.5L17 37.5H14L14.5 35Z" fill="#D9D9D9"/>
<path d="M12.5 39H14.5L15 41.5H12L12.5 39Z" fill="#D9D9D9"/>
<path d="M17 39H19L19.5 41.5H16.5L17 39Z" fill="#D9D9D9"/>
<path d="M19.5 35H21.5L22 37.5H19L19.5 35Z" fill="#D9D9D9"/>
<path d="M24 35H26L26.5 37.5H23.5L24 35Z" fill="#D9D9D9"/>
<path d="M22 39H24L24.5 41.5H21.5L22 39Z" fill="#D9D9D9"/>
<path d="M26.5 39H28.5L29 41.5H26L26.5 39Z" fill="#D9D9D9"/>
<path d="M29 35H31L31.5 37.5H28.5L29 35Z" fill="#D9D9D9"/>
<path d="M33.6462 35H35.6462L36.1462 37.5H33.1462L33.6462 35Z" fill="#D9D9D9"/>
<path d="M31.6462 39H33.6462L34.1462 41.5H31.1462L31.6462 39Z" fill="#D9D9D9"/>
<path d="M36.1462 39H38.1462L38.6462 41.5H35.6462L36.1462 39Z" fill="#D9D9D9"/>
<path d="M38.6462 35H40.6462L41.1462 37.5H38.1462L38.6462 35Z" fill="#D9D9D9"/>
<path d="M43 35H45L45.5 37.5H42.5L43 35Z" fill="#D9D9D9"/>
<path d="M40.6462 39H42.6462L43.1462 41.5H40.1462L40.6462 39Z" fill="#D9D9D9"/>
</svg>
